#!OML:ASF H:\Terrain\Patient Classification 1\Walking\steve\steve.ASF
:FULLY-SPECIFIED
:DEGREES
185
root 7.30868 16.3787 6.74381 6.47663 -6.08986 -5.33782
lowerback -0.345613 4.05101 8.05431
upperback -2.86994 5.55001 2.66052
thorax -2.29229 2.62067 -1.79917
lowerneck -8.89911 1.4126 -2.24972
upperneck 10.0773 2.54622 -2.87857
head 4.49198 0.996178 -0.356448
rclavicle -1.73315e-015 -1.43125e-014
rhumerus -18.2677 -10.2973 -83.2139
rradius 33.7748
rwrist -10.5896
rhand -16.9663 -40.9535
rfingers 7.12502
rthumb 9.26786 -70.7298
lclavicle -1.73315e-015 -1.43125e-014
lhumerus -50.6627 25.4841 65.1112
lradius 9.88674
lwrist -25.1733
lhand -16.3026 -9.04268
lfingers 7.12502
lthumb 9.90821 20.7042
rfemur -8.5854 2.80143 31.4428
rtibia 29.5256
rfoot -16.7304 16.4194
rtoes 11.6244
lfemur -37.9738 5.58578 -15.6545
ltibia 48.7811
lfoot -16.8387 6.36033
ltoes -13.1257
186
root 7.31224 16.343 6.96783 6.54668 -6.6017 -5.19232
lowerback -0.42517 4.11986 7.9009
upperback -2.77818 5.62207 2.5368
thorax -2.14619 2.66588 -1.83178
lowerneck -9.07403 1.47306 -1.976
upperneck 9.98638 2.62116 -3.12293
head 4.50022 1.02875 -0.470021
rclavicle -3.85518e-014 3.26007e-014
rhumerus -16.5883 -9.11504 -83.6923
rradius 34.5767
rwrist -11.5859
rhand -17.0726 -41.0558
rfingers 7.12502
rthumb 9.16525 -70.8366
lclavicle -3.85518e-014 3.26007e-014
lhumerus -52.2573 25.6022 63.7011
lradius 9.71114
lwrist -26.2894
lhand -15.2806 -8.4063
lfingers 7.12502
lthumb 10.8941 21.2911
rfemur -7.33166 2.66418 31.0759
rtibia 28.6645
rfoot -16.2814 17.2094
rtoes 12.0081
lfemur -37.878 5.4732 -15.8583
ltibia 45.3776
lfoot -17.4402 6.67101
ltoes -13.5824
187
root 7.31481 16.3296 7.19532 6.83353 -7.48895 -5.15252
lowerback -0.688186 4.39415 7.82674
upperback -2.72207 5.95147 2.42021
thorax -1.90573 2.84011 -1.88277
lowerneck -9.12219 1.51565 -1.93696
upperneck 9.86072 2.66411 -3.07495
head 4.46952 1.05617 -0.458904
rclavicle 2.13072e-015 -2.94201e-014
rhumerus -15.1248 -7.98594 -83.8953
rradius 35.5584
rwrist -12.4321
rhand -17.1648 -40.3633
rfingers 7.12502
rthumb 9.07635 -70.148
lclavicle 2.13072e-015 -2.94201e-014
lhumerus -53.6745 25.6143 62.4628
lradius 9.4889
lwrist -27.0777
lhand -14.6731 -8.19624
lfingers 7.12502
lthumb 11.4801 21.4694
rfemur -6.3995 2.41846 30.6468
rtibia 27.945
rfoot -15.6714 18.6801
rtoes 12.2465
lfemur -37.8364 5.57671 -15.8641
ltibia 41.7719
lfoot -17.1638 7.14819
ltoes -14.365
188
root 7.31377 16.3309 7.42739 6.83239 -7.44995 -5.23401
lowerback -0.773768 4.33019 7.91461
upperback -2.6206 5.85071 2.44587
thorax -1.75545 2.7958 -1.89327
lowerneck -9.01291 1.60907 -2.16174
upperneck 9.5796 2.78448 -2.88602
head 4.35999 1.12503 -0.35892
rclavicle -3.17551e-014 -7.95139e-016
rhumerus -13.7281 -6.70957 -83.9728
rradius 36.4051
rwrist -13.0706
rhand -17.5305 -40.0972
rfingers 7.12502
rthumb 8.72339 -69.8969
lclavicle -3.17551e-014 -7.95139e-016
lhumerus -55.1755 25.6681 61.255
lradius 9.45838
lwrist -27.7058
lhand -14.3759 -7.71676
lfingers 7.12502
lthumb 11.7666 21.9327
rfemur -5.15189 1.78814 30.5371
rtibia 27.2549
rfoot -15.6713 19.4121
rtoes 10.6683
lfemur -37.6995 4.83269 -15.4658
ltibia 38.0702
lfoot -16.8793 7.64588
ltoes -16.634
189
root 7.31405 16.3318 7.65295 7.09006 -8.06296 -5.59259
lowerback -0.912303 4.47919 8.21106
upperback -2.56355 6.03054 2.52351
thorax -1.58286 2.88754 -1.95599
lowerneck -9.046 1.6702 -2.46665
upperneck 8.97335 2.87274 -2.69779
head 4.62746 1.18157 -0.278134
rclavicle 1.05138e-014 3.18055e-015
rhumerus -12.3017 -5.155 -84.1342
rradius 37.1767
rwrist -14.21
rhand -18.3343 -40.4423
rfingers 7.12502
rthumb 7.94772 -70.2728
lclavicle 1.05138e-014 3.18055e-015
lhumerus -56.7593 25.7032 59.9554
lradius 9.6287
lwrist -28.0782
lhand -14.1462 -7.30964
lfingers 7.12502
lthumb 11.9882 22.327
rfemur -3.96149 1.64791 30.5876
rtibia 26.2704
rfoot -15.2037 20.0775
rtoes 9.04155
lfemur -37.6814 4.39393 -14.6147
ltibia 34.4543
lfoot -17.4336 8.11811
ltoes -17.0791
